<svg xmlns="http://www.w3.org/2000/svg" xmlns:xlink="http://www.w3.org/1999/xlink" width="490.46484375" height="77.0625"><path d="M2.99-50.41L2.99-50.41L5.63-50.10L7.91-50.41L7.91-50.41Q11.14-50.41 11.53-46.13L11.53-46.13L8.26-44.16L8.26-43.52L8.26-43.52Q8.26-40.43 6.29-38.57L6.29-38.57L6.29-38.57Q6.29-31.99 3.97-31.99L3.97-31.99L2.99-31.99L2.99-31.99Q1.79-31.99 1.02-36.60L1.02-36.60L1.34-36.95L1.34-37.27L1.02-39.23L1.34-43.84L1.02-44.16L1.02-44.51L1.34-45.49L1.34-45.49Q0.60-45.49 0.04-49.43L0.04-49.43L0.04-49.43Q0.04-50.41 2.99-50.41ZM32.84-54.95L32.55-55.13L32.55-55.13Q32.45-55.09 32.38-55.09L32.38-55.09L32.38-55.09Q29.67-55.23 29.43-55.51L29.43-55.51L29.29-55.51L29.14-55.37L28.58-55.65L28.58-55.65Q28.58-55.13 24.36-54.95L24.36-54.95L21.97-55.51L21.41-55.51L21.27-55.37L21.13-55.51L20.85-55.51L20.14-55.37L19.30-55.51L18.74-55.51L16.91-55.23L15.36-55.51L13.96-55.51L12.69-55.93L10.72-55.51L10.58-55.51L9.32-55.65L7.35-55.09L5.66-55.51L4.25-55.51L4.11-55.37L3.97-55.51L3.41-55.51L2.14-55.65L-0.91-55.34L-0.91-59.55L-0.53-59.31L-0.11-59.31L0.74-59.59L1.16-59.31L1.16-59.31Q1.16-59.59 4.11-59.73L4.11-59.73L4.11-59.73Q4.39-59.45 5.80-59.31L5.80-59.31L5.80-59.31Q5.80-59.59 7.07-59.73L7.07-59.73L7.07-59.73Q7.07-59.38 8.61-59.17L8.61-59.17L10.16-59.17L11.14-59.59L14.10-59.03L15.08-59.31L15.22-59.31L15.36-59.17L16.35-59.45L18.74-59.03L19.86-59.45L20.00-59.45L20.14-59.31L22.25-59.59L24.22-59.03L27.04-59.59L29.71-59.45L30.83-59.59L30.83-59.59Q30.83-59.34 32.24-59.31L32.24-59.31L32.31-59.31L32.55-59.73L32.55-59.73Q34.17-59.73 35.37-59.31L35.37-59.31L35.37-59.31Q36.98-59.31 37.48-59.87L37.48-59.87L38.18-59.87L40.57-59.45L40.99-59.45L42.54-59.87L42.54-59.87Q45.53-59.41 46.05-59.03L46.05-59.03L46.62-59.03L46.62-59.03Q47.32-59.03 47.46-59.45L47.46-59.45L47.60-59.45L47.74-59.31L48.30-59.31L48.30-55.09L48.16-55.09L47.32-55.23L46.34-54.95L46.34-54.95Q44.47-55.23 44.09-55.51L44.09-55.51L43.95-55.51L43.80-55.37L40.71-55.65L40.71-55.65Q38.92-55.65 38.46-55.09L38.46-55.09L38.18-55.09L37.62-55.51L36.77-55.23L36.63-55.37L36.21-55.37L36.21-55.37Q35.33-55.09 32.84-54.95L32.84-54.95ZM32.20 8.82L32.20 8.82L32.06 8.82L30.80 9.11L30.80 9.11Q30.80 8.82 30.38 8.82L30.38 8.82L29.25 8.96L29.25 8.82L29.25 8.82Q27.95 9 27.42 9.39L27.42 9.39L27.42 9.39Q26.05 9.11 25.45 8.54L25.45 8.54L24.89 8.68L24.47 8.54L23.34 8.68L23.20 8.54L22.50 8.68L22.08 8.68L20.11 8.54L19.97 8.68L19.83 8.68L18.98 8.40L16.45 8.82L16.03 8.82L14.91 8.54L14.20 8.54L14.20 8.54Q13.18 8.54 11.67 8.96L11.67 8.96L11.25 8.82L9.28 8.96L8.72 8.96L6.47 8.40L6.47 8.40Q3.97 9.11 3.09 9.11L3.09 9.11L3.09 9.11Q3.09 8.68 2.53 8.68L2.53 8.68L1.69 8.82L0.56 8.68L0.42 8.82L0.28 8.68L0.14 8.68L0.14 8.68Q-0.39 8.68-0.91 8.72L-0.91 8.72L-0.91 4.54L-0.14 4.75L0.42 4.61L0.84 4.75L1.69 4.32L3.94 4.75L6.75 4.61L6.75 4.61Q8.58 4.61 9.70 5.03L9.70 5.03L9.70 5.03Q11.14 4.04 11.67 4.04L11.67 4.04L12.09 4.04L14.77 4.61L16.73 4.61L17.72 4.32L20.11 4.61L20.11 4.61Q20.78 4.61 22.22 3.90L22.22 3.90L22.22 3.90Q22.92 3.90 24.19 4.89L24.19 4.89L24.47 4.89L24.89 4.46L25.03 4.46L25.03 4.75L25.17 4.75L25.17 4.75Q25.73 4.18 26.16 4.18L26.16 4.18L27.28 4.32L27.42 4.18L27.42 4.18Q27.56 4.61 28.27 4.61L28.27 4.61L28.27 4.61Q30.38 4.57 30.38 4.32L30.38 4.32L31.92 4.75L32.77 4.61L32.98 4.61L32.98 4.61Q33.22 4.57 33.54 4.57L33.54 4.57L35.65 5.13L36.21 5.13L38.74 5.41L40.29 5.13L41.13 5.27L45.35 4.57L46.05 4.57L46.05 4.57Q46.34 4.96 48.30 5.10L48.30 5.10L48.30 9.18L46.62 8.65L43.66 9.49L39.73 9.07L39.73 9.07Q39.59 9.49 38.88 9.49L38.88 9.49L38.32 9.49L38.32 9.49Q37.58 9.49 37.05 9.07L37.05 9.07L34.10 9.49L34.10 9.49Q32.48 9.49 32.20 8.82ZM33.26-49.43L36.21-50.10L41.13-50.10L41.13-50.10Q42.79-46.93 42.79-43.17L42.79-43.17L42.79-43.17Q41.80-41.45 41.80-38.57L41.80-38.57L42.47-37.27L41.13-31.99L39.48-31.99L39.48-31.99Q38.50-31.99 37.86-35.61L37.86-35.61L38.50-36.28L38.50-36.28Q38.50-42.29 35.54-43.84L35.54-43.84L35.54-43.84Q35.54-45.81 33.26-45.81L33.26-45.81L32.91-46.13L32.91-46.48L33.57-47.78L33.26-49.43ZM23.70-50.10L23.70-50.10L25.03-49.75L26.68-50.10L26.68-50.10Q28.30-50.10 29.95-48.45L29.95-48.45L29.64-42.19L29.95-39.23L29.29-37.58L30.27-31.68L30.27-31.68Q29.53-31.68 29.29-29.36L29.29-29.36L29.64-28.37L28.97-26.40L28.97-26.09L29.29-25.10L28.65-18.18L28.65-18.18Q29.43-17.16 29.95-10.97L29.95-10.97L29.64-9.63L29.95-8.65L29.29-7.98L29.29-6.36L29.29-6.36Q29.64-5.31 32.91-4.39L32.91-4.39L33.26-2.74L33.26-2.07L33.26-2.07Q32.38-2.07 31.61-0.42L31.61-0.42L30.62-0.42L28.65-0.77L28.65-0.77Q27.18-0.11 24.36-0.11L24.36-0.11L22.39-0.77L22.39-0.42L22.08-0.77L21.41-0.77L18.77-0.11L18.77-0.11Q17.19-0.11 14.84-1.76L14.84-1.76L11.53-0.77L11.53-0.77Q11.53-1.58 10.23-1.76L10.23-1.76L10.23-2.39L10.23-2.39Q11.21-2.39 11.21-4.04L11.21-4.04L11.21-4.04Q12.76-4.04 13.50-8.33L13.50-8.33L13.85-8.65L13.85-11.60L13.85-11.60Q13.85-18.42 15.15-19.16L15.15-19.16L15.15-19.51L15.15-19.51Q14.52-23.66 13.18-24.43L13.18-24.43L13.18-24.75L13.18-24.75Q14.17-25.98 14.17-27.07L14.17-27.07L14.17-29.36L13.50-34.63L13.50-34.95L13.50-34.95Q13.50-37.23 15.50-39.90L15.50-39.90L15.50-39.90Q15.50-44.89 14.52-49.11L14.52-49.11L14.84-49.11L21.09-48.76L21.09-48.76Q21.09-49.64 23.70-50.10ZM55.93-50.10L55.93-50.41L55.93-50.41Q59.70-48.80 63.77-48.45L63.77-48.45L66.06-49.11L66.06-49.11Q66.69-49.11 68.34-46.51L68.34-46.51L68.34-43.56L67.04-41.63L67.04-39.97L67.36-36.07L66.69-31.50L68.98-26.26L68.98-26.26Q68.98-24.43 66.06-16.80L66.06-16.80L66.06-16.49L66.69-15.50L66.38-14.20L67.04-10.93L66.69-10.62L66.69-10.30L67.04-9.98L67.04-9L66.69-9L67.04-6.71L67.04-1.16L66.69-0.84L66.69-0.53L66.38-0.84L66.06-0.84L60.19 0.14L55.93-2.14L52.03-0.53L51.36-0.53L51.36-0.53Q49.57-0.53 48.13-2.78L48.13-2.78L48.13-2.78Q48.13-4.11 51.05-4.75L51.05-4.75L51.36-5.06L51.36-5.41L50.73-6.71L52.03-10.30L52.03-10.30Q52.03-13.18 51.05-14.52L51.05-14.52L51.71-17.16L51.71-20.39L51.36-21.73L51.71-23.03L51.05-27.60L52.03-31.18L51.05-36.39L52.03-41.63L52.03-41.63Q50.24-45.07 47.46-46.51L47.46-46.51L47.46-46.51Q47.46-50.10 55.93-50.10L55.93-50.10ZM72.91-50.41L72.91-50.41L74.21-49.75L74.53-50.10L74.85-50.10L78.43-49.43L82.02-49.75L84.66-49.11L84.66-47.50L84.97-37.05L84.97-37.05Q83.57-35.30 81.70-35.09L81.70-35.09L79.10-38.36L79.10-39.34L79.42-39.66L79.42-39.66Q77.34-43.56 75.20-43.56L75.20-43.56L74.85-44.86L71.93-44.54L71.93-44.54Q70.28-44.75 70.28-46.51L70.28-46.51L70.28-49.11L70.28-49.11Q70.28-49.75 72.91-50.41ZM75.52-36.07L76.82-36.07L76.82-34.10L76.82-34.10Q77.70-34.10 78.43-23.34L78.43-23.34L78.12-22.36L79.10-19.76L78.79-19.44L79.10-17.79L79.10-17.79Q78.68-15.19 77.13-15.19L77.13-15.19L77.13-15.19Q75.90-15.26 73.23-19.44L73.23-19.44L73.23-19.44Q72.56-19.44 72.56-21.38L72.56-21.38L70.28-23.66L70.28-23.66Q70.28-28.23 72.56-28.23L72.56-28.23L72.56-28.23Q72.56-28.90 73.55-28.90L73.55-28.90L75.20-35.75L75.52-36.07ZM83.00-15.86L83.67-15.86L83.67-15.86Q85.18-15.86 85.61-10.62L85.61-10.62L85.96-10.62L84.97-8.02L85.29-7.70L84.97-6.05L84.97-0.84L83.67-0.53L77.48-1.48L70.63-0.53L70.95-1.48L70.63-3.45L70.63-3.76L70.63-3.76Q70.63-4.43 73.55-4.43L73.55-4.43L73.55-4.43Q73.97-5.41 78.12-7.70L78.12-7.70L78.12-7.70Q80.61-13.85 83.00-15.86L83.00-15.86ZM90.63-59.48L90.63-55.13L89.65-55.44L89.65-55.44Q88.80-54.88 87.12-54.88L87.12-54.88L85.85-55.16L85.85-55.16Q84.87-55.16 84.30-54.88L84.30-54.88L82.76-55.02L81.49-55.02L81.35-54.88L80.23-55.16L79.66-55.02L79.24-55.16L78.40-54.74L76.15-55.16L73.34-55.02L73.34-55.02Q71.51-55.02 70.38-55.44L70.38-55.44L70.38-55.44Q68.94-54.46 68.41-54.46L68.41-54.46L67.99-54.46L65.32-55.02L63.35-55.02L62.37-54.74L59.98-55.02L59.98-55.02Q59.31-55.02 57.87-54.32L57.87-54.32L57.87-54.32Q57.20-54.32 55.90-55.30L55.90-55.30L55.62-55.30L55.20-54.88L55.05-54.88L55.05-55.16L54.91-55.16L54.91-55.16Q54.39-54.60 53.93-54.60L53.93-54.60L52.80-54.74L52.66-54.60L52.66-54.60Q52.52-55.02 51.82-55.02L51.82-55.02L51.82-55.02Q49.71-54.98 49.71-54.74L49.71-54.74L48.16-55.16L47.32-55.02L47.18-55.02L47.18-55.02Q46.76-55.02 46.62-56.85L46.62-56.85L46.48-56.85L46.48-56.85Q46.62-59.24 48.02-59.24L48.02-59.24L49.29-59.52L49.29-59.52Q49.29-59.24 49.71-59.24L49.71-59.24L50.84-59.38L50.84-59.24L50.84-59.24Q52.14-59.41 52.66-59.80L52.66-59.80L52.66-59.80Q54.04-59.52 54.63-58.96L54.63-58.96L55.20-59.10L55.62-58.96L56.74-59.10L56.88-58.96L57.59-59.10L58.01-59.10L59.98-58.96L60.12-59.10L60.26-59.10L61.10-58.82L63.63-59.24L64.05-59.24L65.18-58.96L65.88-58.96L65.88-58.96Q66.90-58.96 68.41-59.38L68.41-59.38L68.84-59.24L70.80-59.38L71.37-59.38L73.62-58.82L73.62-58.82Q76.11-59.52 76.99-59.52L76.99-59.52L76.99-59.52Q76.99-59.10 77.55-59.10L77.55-59.10L78.40-59.24L79.52-59.10L79.66-59.24L79.80-59.10L79.95-59.10L79.95-59.10Q82.51-59.10 85.43-59.66L85.43-59.66L86.98-59.10L88.80-59.38L89.93-59.24L90.63-59.48ZM90.53 5.03L90.53 9.42L89.54 9.70L89.12 9.56L88.14 9.84L86.87 9.42L84.62 9.42L83.78 9.28L81.81 9.56L79.42 9L77.17 9.28L76.18 9.14L75.62 9.28L74.92 9.14L74.21 9.56L73.51 9.14L73.51 9.14Q71.89 9.28 71.40 9.70L71.40 9.70L69.29 9.42L68.03 9.70L67.61 9.28L67.18 9.28L66.76 9.70L66.20 9.56L65.36 9.70L63.53 9.28L63.53 9.42L61.28 8.72L58.32 9.56L54.39 9.14L54.39 9.14Q54.25 9.56 53.54 9.56L53.54 9.56L52.98 9.56L52.98 9.56Q52.24 9.56 51.71 9.14L51.71 9.14L48.76 9.56L48.76 9.56Q46.79 9.56 46.79 8.58L46.79 8.58L46.93 8.02L46.93 8.02Q46.93 6.82 46.23 5.77L46.23 5.77L46.23 5.77Q46.65 4.64 48.20 4.64L48.20 4.64L50.31 5.20L50.87 5.20L53.40 5.48L54.95 5.20L55.79 5.34L60.01 4.64L60.71 4.64L60.71 4.64Q61.10 5.20 64.79 5.20L64.79 5.20L66.48 5.20L67.75 5.06L67.75 5.06Q69.71 5.27 69.71 5.48L69.71 5.48L72.53 5.20L73.51 5.48L73.51 5.48Q74.18 5.06 76.04 5.06L76.04 5.06L76.18 5.06L77.59 5.48L78.71 5.48L80.54 4.92L82.23 4.92L82.79 5.06L82.93 4.92L85.04 5.06L88.56 4.64L90.53 5.03ZM109.90-50.41L109.90-50.41L110.85-50.10L110.85-47.25L110.85-47.25Q110.85-45.07 107.65-44.72L107.65-44.72L107.96-44.40L107.02-42.79L107.33-40.57L106.70-39.94L106.70-37.72L107.02-37.41L106.70-37.09L106.70-36.77L107.33-34.24L107.33-33.29L107.33-33.29Q105.43-28.76 105.43-26.93L105.43-26.93L107.33-21.23L106.70-19.34L106.70-17.09L107.65-12.66L106.70-9.81L106.70-8.54L106.70-8.54Q106.70-6.86 111.16-3.13L111.16-3.13L110.53-0.91L110.21-0.91L110.21-0.91Q108.56-0.91 107.33-1.86L107.33-1.86L106.70-1.86L103.85-1.55L103.85-1.55Q102.34-1.79 101.32-3.13L101.32-3.13L94.64-6.64L95.27-8.23L95.27-8.23Q93.06-8.72 93.06-9.81L93.06-9.81L93.38-10.13L93.38-10.44L90.21-18.35L90.21-18.35Q90.84-19.76 90.84-23.45L90.84-23.45L89.89-28.51L89.89-28.51Q89.89-35.23 93.69-37.09L93.69-37.09L94.01-37.41L94.01-37.72L93.06-39.30L93.06-39.30Q93.87-40.92 95.91-42.15L95.91-42.15L95.91-42.15Q96.43-44.47 103.22-48.52L103.22-48.52L103.22-48.52Q103.22-49.25 109.90-50.41ZM116.86-50.10L116.86-50.10L116.86-50.10Q116.86-49.25 121.64-47.57L121.64-47.57L121.64-47.57Q123.86-47.57 125.75-49.78L125.75-49.78L126.39-49.78L126.39-49.78Q127.97-48.97 127.97-46.93L127.97-46.93L127.97-46.93Q127.97-45.35 127.34-45.35L127.34-45.35L127.34-45.35Q127.97-44.58 128.29-40.25L128.29-40.25L127.97-34.88L128.92-32.34L128.92-32.34Q128.00-30.09 126.07-30.09L126.07-30.09L126.07-30.09Q126.07-30.94 124.49-31.36L124.49-31.36L121.96-39.94L121.96-39.94Q121.15-39.94 119.39-42.15L119.39-42.15L119.39-42.15Q117.81-42.40 117.81-43.10L117.81-43.10L118.13-44.40L118.13-44.40Q116.54-45.56 113.38-45.98L113.38-45.98L113.38-45.98Q113.38-49.46 115.28-49.46L115.28-49.46L115.28-49.46Q115.28-50.10 116.86-50.10ZM127.97-14.87L127.97-14.87L128.29-14.55L128.29-14.55Q127.90-9.63 126.39-7.28L126.39-7.28L126.39-7.28Q124.17-7.28 124.17-4.71L124.17-4.71L119.39-3.13L119.39-3.45L115.91 0.04L114.01 0.04L114.01 0.04Q112.75-0.49 112.75-2.18L112.75-2.18L112.75-3.45L112.75-3.45Q112.75-4.01 120.97-7.59L120.97-7.59L120.97-7.59Q124.49-14.87 127.97-14.87ZM134.58 4.57L134.58 9.25L134.02 9.42L133.59 9.28L132.75 9.56L132.75 9.56Q132.75 8.86 130.78 8.72L130.78 8.72L128.39 9.28L127.27 9.28L126 9.14L125.86 9.14L125.72 9.28L124.17 9.14L123.47 9.14L123.05 8.86L122.63 8.86L121.78 9.14L121.36 8.86L121.36 8.86Q121.36 9.14 118.41 9.28L118.41 9.28L118.41 9.28Q118.13 9 116.72 8.86L116.72 8.86L116.72 8.86Q116.72 9.14 115.45 9.28L115.45 9.28L115.45 9.28Q115.45 8.93 113.91 8.72L113.91 8.72L112.36 8.72L111.38 9.14L108.42 8.58L107.44 8.86L107.30 8.86L107.16 8.72L106.17 9L103.78 8.58L102.66 9L102.52 9L102.38 8.86L100.27 9.14L98.30 8.58L95.48 9.14L92.81 9L91.69 9.14L91.69 9.14Q91.69 8.89 90.28 8.86L90.28 8.86L89.30 8.86L89.02 8.58L89.02 8.30L89.30 7.17L89.30 6.75L89.02 6.33L89.02 5.77L89.02 5.77Q89.02 4.78 90.14 4.64L90.14 4.64L90.14 4.64Q92.85 4.78 93.09 5.06L93.09 5.06L93.23 5.06L93.38 4.92L93.94 5.20L93.94 5.20Q93.94 4.68 98.16 4.50L98.16 4.50L100.55 5.06L101.11 5.06L101.25 4.92L101.39 5.06L101.67 5.06L102.38 4.92L103.22 5.06L103.78 5.06L105.61 4.78L107.16 5.06L108.56 5.06L109.83 5.48L111.80 5.06L111.94 5.06L113.20 5.20L115.17 4.64L116.86 5.06L118.27 5.06L118.41 4.92L118.55 5.06L119.11 5.06L120.38 5.20L124.59 4.78L125.02 4.92L125.44 4.78L126 4.92L126.14 4.92L126.28 4.78L127.27 4.92L128.95 4.64L131.20 4.92L133.31 4.36L134.58 4.57ZM134.58-59.13L134.58-54.91L132.71-54.67L132.71-54.67Q131.63-54.67 130.18-55.09L130.18-55.09L130.04-55.09L130.04-55.09Q129.52-54.67 129.06-54.67L129.06-54.67L128.64-54.67L128.64-54.67Q127.79-54.67 126.95-55.51L126.95-55.51L125.26-55.23L124.70-55.37L124.14-55.23L123.01-55.23L123.01-55.23Q122.20-54.67 121.75-54.67L121.75-54.67L120.62-54.81L120.48-54.81L120.34-54.67L119.64-55.09L118.79-54.67L117.95-54.95L117.95-54.95Q117.42-54.53 116.68-54.53L116.68-54.53L116.26-54.53L115.14-54.95L115.14-54.95Q112.32-54.95 109.65-54.53L109.65-54.53L109.65-54.53Q108.35-54.53 107.40-55.37L107.40-55.37L107.40-55.37Q107.40-54.81 105.43-54.67L105.43-54.67L104.59-54.81L103.61-54.53L103.61-54.53Q101.74-54.81 101.36-55.09L101.36-55.09L101.21-55.09L101.07-54.95L97.98-55.23L97.98-55.23Q96.19-55.23 95.73-54.67L95.73-54.67L95.45-54.67L94.89-55.09L94.04-54.81L93.90-54.95L93.48-54.95L93.48-54.95Q92.60-54.67 90.11-54.53L90.11-54.53L89.12-55.09L89.12-55.23L89.26-55.37L89.26-55.37Q89.82-55.58 89.82-55.79L89.82-55.79L89.82-55.93L89.40-56.36L89.68-57.34L89.68-57.48L89.68-57.48Q89.68-57.76 89.26-57.76L89.26-57.76L89.26-58.32L89.82-59.31L89.82-59.31Q91.44-59.31 92.64-58.89L92.64-58.89L92.64-58.89Q94.25-58.89 94.75-59.45L94.75-59.45L95.45-59.45L97.84-59.03L98.26-59.03L99.81-59.45L99.81-59.45Q102.80-58.99 103.32-58.61L103.32-58.61L103.89-58.61L103.89-58.61Q104.59-58.61 104.73-59.03L104.73-59.03L104.87-59.03L105.01-58.89L105.57-58.89L105.57-58.89Q105.57-59.17 108.81-59.59L108.81-59.59L109.65-59.45L109.79-59.45L109.93-59.59L109.93-59.59Q110.50-59.38 110.50-59.17L110.50-59.17L111.48-59.31L112.46-59.31L116.12-58.61L117.53-59.17L117.53-59.03L117.53-59.03Q118.86-59.03 120.06-59.45L120.06-59.45L121.46-59.17L121.46-59.17Q124.14-59.17 125.54-59.73L125.54-59.73L125.54-59.73Q128.36-58.75 129.34-58.75L129.34-58.75L130.04-58.75L130.04-58.75Q131.73-59.31 133.28-59.45L133.28-59.45L133.70-59.03L134.12-59.03L134.12-59.31L134.54-59.31L134.54-59.31Q134.54-59.20 134.58-59.13L134.58-59.13ZM161.40-50.45L161.40-50.45L164.00-50.45L164.00-50.45Q164.46-49.82 169.21-49.46L169.21-49.46L169.52-49.82L169.88-49.82L174.41-49.15L179.61-50.13L181.90-49.15L181.90-49.15Q181.90-45.25 178.66-45.25L178.66-45.25L178.00-42.96L178.00-40.36L178.66-37.76L178.66-35.82L178.66-35.82Q178.66-33.43 177.68-30.27L177.68-30.27L178.66-26.37L178.00-22.15L178.66-18.25L178.00-16.91L178.31-15.96L178.00-12.06L178.66-9.77L178.31-8.12L178.31-8.12Q178.31-6.26 181.58-2.60L181.58-2.60L180.60-1.30L179.61-1.30L176.03-1.97L176.03-1.97Q174.41-1.86 174.41-1.30L174.41-1.30L170.19-2.29L169.21-2.29L169.21-2.29Q169.21-1.30 168.22-1.30L168.22-1.30L168.22-1.62L168.22-1.62Q165.73-0.67 161.09-0.32L161.09-0.32L161.09-0.32Q159.12-0.32 159.12-2.60L159.12-2.60L158.80-2.60L158.80-2.60Q162.04-5.91 162.04-7.17L162.04-7.17L163.34-15.29L162.04-17.58L163.69-22.46L163.69-23.10L163.02-23.77L161.72-23.45L158.80-23.77L158.80-23.45L158.80-23.45Q156.20-23.91 156.20-26.05L156.20-26.05L156.20-27.04L156.83-27.67L159.75-27.67L160.10-27.35L160.10-27.35Q163.34-29.74 163.34-36.46L163.34-36.46L161.72-40.04L161.72-40.04Q163.34-42.15 163.34-43.28L163.34-43.28L163.34-43.28Q163.34-45.63 158.45-48.16L158.45-48.16L158.45-49.15L158.45-49.15Q158.91-50.45 161.40-50.45ZM141.22-50.13L141.22-50.13L145.13-49.46L148.04-49.82L152.93-49.46L155.21-49.82L157.15-49.15L157.15-47.21L157.15-47.21Q153.28-44.44 152.93-42.64L152.93-42.64L153.91-36.14L153.91-33.54L154.23-31.89L152.93-29.64L152.93-27.04L152.93-27.04Q153.91-25.84 153.91-24.75L153.91-24.75L153.25-21.16L154.55-15.96L154.55-15.96Q152.93-14.91 152.93-12.06L152.93-12.06L152.93-12.06Q153.91-10.44 153.91-7.80L153.91-7.80L153.91-7.17L153.25-6.19L153.25-5.87L153.25-5.87Q153.25-5.20 155.21-4.89L155.21-4.89L155.21-4.89Q155.43-3.38 157.50-1.97L157.50-1.97L157.50-0.98L157.15-0.67L156.20-0.32L156.20 0L156.20 0Q150.08-0.67 146.43-1.97L146.43-1.97L146.43-1.97Q142.45-1.62 137.64-0.32L137.64-0.32L135.67-0.32L134.05-2.60L134.05-2.92L134.05-2.92Q134.05-4.99 137.32-5.87L137.32-5.87L137.32-11.07L136.34-13.01L136.34-13.01Q137.64-14.98 137.64-15.96L137.64-15.96L137.32-15.96L137.95-17.58L137.64-17.89L137.64-18.25L137.95-18.56L137.95-18.88L137.64-20.18L138.27-21.16L137.95-22.15L137.95-22.15Q138.94-23.87 138.94-27.67L138.94-27.67L136.97-30.94L137.64-35.16L137.64-35.16Q136.90-35.16 136.65-36.77L136.65-36.77L136.65-36.77Q137.39-40.68 138.62-40.68L138.62-40.68L138.62-40.68Q137.07-44.79 134.72-48.52L134.72-48.52L136.02-49.15L137.95-48.83L138.27-48.83L138.27-48.83Q140.03-50.13 141.22-50.13ZM187.35-59.45L187.35-55.34L187.35-55.34Q186.75-55.27 186.08-55.27L186.08-55.27L183.27-55.41L181.02-54.98L180.18-55.41L179.75-55.27L179.19-55.41L178.07-55.13L177.93-55.27L176.66-55.27L175.11-55.13L175.11-55.13Q174.55-55.41 173.57-55.41L173.57-55.41L172.30-55.13L172.30-55.13Q170.61-55.13 169.77-55.69L169.77-55.69L168.50-55.27L167.10-55.41L166.96-55.41L166.82-55.27L165.97-55.55L164.99-54.98L162.74-55.41L161.61-55.13L161.05-55.41L160.49-55.27L160.35-55.27L160.07-55.55L160.07-55.55Q158.17-55.55 157.39-54.84L157.39-54.84L156.83-54.98L156.13-54.84L156.13-54.84Q156.13-55.13 154.30-55.27L154.30-55.27L153.88-55.13L152.05-55.55L150.93-55.13L149.80-55.13L149.24-54.98L149.24-54.98Q147.13-55.16 147.13-55.55L147.13-55.55L144.18-55.13L141.64-55.27L139.39-54.98L137.43-55.41L134.47-55.41L134.47-55.41Q134.26-55.20 133.31-55.05L133.31-55.05L133.31-59.45L134.75-59.20L134.75-59.20Q135.53-59.20 136.30-59.63L136.30-59.63L136.30-59.63Q137.18-59.63 137.99-59.20L137.99-59.20L140.24-59.63L143.47-59.34L143.47-59.48L143.75-59.48L144.18-59.20L145.30-59.48L146.00-59.48L146.85-59.20L149.24-59.48L151.21-59.06L152.33-59.20L153.88-59.06L155.57-59.48L156.13-59.34L161.19-59.77L161.33-59.63L162.32-59.77L162.88-59.63L162.88-59.63Q163.27-59.10 164.00-58.92L164.00-58.92L164.00-58.92Q165.41-59.31 165.41-59.48L165.41-59.48L166.68-59.34L166.68-59.34Q167.41-59.77 168.08-59.77L168.08-59.77L168.64-59.77L169.49-59.48L170.61-59.63L172.44-59.34L173.99-59.91L173.99-59.91Q176.94-59.34 179.47-59.34L179.47-59.34L179.61-59.34L179.75-59.48L179.89-59.34L181.02-59.48L181.86-59.34L181.86-59.34Q182.43-59.34 182.43-59.77L182.43-59.77L182.43-59.77Q183.30-59.77 185.80-59.06L185.80-59.06L187.35-59.45ZM187.35 4.96L187.35 8.93L185.77 8.61L184.36 9.18L184.36 9.04L184.36 9.04Q183.02 9.04 181.83 9.46L181.83 9.46L180.42 9.18L180.42 9.18Q177.75 9.18 176.34 9.74L176.34 9.74L176.34 9.74Q173.53 8.75 172.55 8.75L172.55 8.75L171.84 8.75L171.84 8.75Q170.16 9.32 168.61 9.46L168.61 9.46L168.19 9.04L167.77 9.04L167.77 9.32L167.34 9.32L167.34 9.32Q167.34 8.89 166.64 8.89L166.64 8.89L166.36 8.89L166.22 9.04L165.52 8.61L165.09 8.61L165.09 8.61Q164.81 8.89 163.97 8.89L163.97 8.89L163.27 9.60L159.33 8.61L159.19 8.61L157.36 9.46L157.22 9.32L155.95 9.32L155.95 9.32Q155.74 9.32 155.53 8.75L155.53 8.75L152.44 9.18L152.44 9.18Q151.66 8.89 150.47 8.89L150.47 8.89L150.47 8.89Q149.87 8.89 149.20 9.32L149.20 9.32L148.36 8.89L147.66 8.89L146.11 9.04L144.42 8.61L144.42 8.61Q142.63 9 142.31 9.46L142.31 9.46L141.61 9.04L141.61 9.04Q140.52 9.04 139.50 10.02L139.50 10.02L139.50 10.02Q138.90 9.88 138.38 9.32L138.38 9.32L138.38 9.32Q135.98 8.79 135.98 8.47L135.98 8.47L134.86 8.75L134.72 8.61L134.58 8.61L133.73 8.89L133.42 8.86L133.42 5.10L134.16 5.24L135.84 4.82L136.27 4.82L137.39 5.10L137.53 4.96L138.80 5.10L139.36 4.82L139.92 5.10L141.47 5.10L142.59 4.68L142.73 4.68L142.88 4.82L145.13 4.25L146.53 4.96L147.80 4.96L149.20 4.82L149.48 5.10L149.77 4.82L151.45 4.96L152.86 4.96L153.56 5.10L153.98 4.68L155.25 5.10L155.81 4.96L155.95 4.96L156.09 5.10L156.94 4.68L158.48 4.96L159.47 4.82L161.44 5.38L165.38 4.82L165.52 4.96L166.22 4.82L167.06 4.96L169.17 4.68L169.17 4.68Q170.26 4.68 171.70 5.10L171.70 5.10L171.84 5.10L171.84 5.10Q172.37 4.68 172.83 4.68L172.83 4.68L173.25 4.68L173.25 4.68Q174.09 4.68 174.94 5.52L174.94 5.52L176.63 5.24L177.19 5.38L177.75 5.24L178.88 5.24L178.88 5.24Q179.68 4.68 180.14 4.68L180.14 4.68L181.27 4.82L181.41 4.82L181.55 4.68L182.25 5.10L183.09 4.68L183.94 4.96L183.94 4.96Q184.46 4.54 185.20 4.54L185.20 4.54L185.63 4.54L186.75 4.96L187.35 4.96ZM222.89 4.64L222.89 9.35L220.96 9.11L220.11 9.25L219.41 9.11L219.27 9.25L215.33 8.68L213.36 9.25L212.38 9.11L210.83 9.39L209.99 8.96L209.85 9.11L209.71 9.11L209.14 8.96L207.88 9.39L207.46 8.96L206.75 9.11L205.35 9.11L203.66 9.25L203.38 8.96L203.10 9.25L201.69 9.11L200.43 9.11L199.02 9.81L196.77 9.25L196.63 9.39L196.49 9.39L195.36 8.96L193.82 8.96L193.25 9.25L192.69 8.96L191.43 9.11L191.29 8.96L190.16 9.25L189.74 9.25L188.05 8.82L186.64 9.11L186.08 8.96L185.77 9.04L185.77 5.24L186.08 5.31L187.63 5.17L188.47 5.45L188.61 5.45L188.75 5.31L189.88 5.59L189.88 5.59Q189.88 5.27 192.27 4.75L192.27 4.75L192.27 4.75Q192.80 4.18 193.39 4.04L193.39 4.04L193.39 4.04Q194.41 5.03 195.50 5.03L195.50 5.03L196.21 4.61L196.21 4.61Q196.52 5.06 198.32 5.45L198.32 5.45L200.00 5.03L201.55 5.17L202.25 5.17L203.10 4.75L203.10 4.75Q203.77 5.17 204.36 5.17L204.36 5.17L204.36 5.17Q205.56 5.17 206.33 4.89L206.33 4.89L209.43 5.31L209.43 5.31Q209.64 4.75 209.85 4.75L209.85 4.75L211.11 4.75L211.25 4.61L213.08 5.45L213.22 5.45L217.16 4.46L217.86 5.17L217.86 5.17Q218.71 5.17 218.99 5.45L218.99 5.45L219.41 5.45L220.11 5.03L220.25 5.17L220.54 5.17L220.54 5.17Q221.24 5.17 221.24 4.75L221.24 4.75L221.66 4.75L221.66 5.03L222.08 5.03L222.50 4.61L222.50 4.61Q222.68 4.61 222.89 4.64L222.89 4.64ZM216.63-54.77L216.63-54.77L216.25-54.56L216.25-54.56Q213.75-54.70 212.87-54.98L212.87-54.98L212.45-54.98L212.31-54.84L211.46-55.13L210.90-54.70L210.62-54.70L210.62-54.70Q210.16-55.27 208.37-55.27L208.37-55.27L205.28-54.98L205.14-55.13L205.00-55.13L205.00-55.13Q204.61-54.84 202.75-54.56L202.75-54.56L201.76-54.84L200.92-54.70L200.92-54.70Q198.95-54.84 198.95-55.41L198.95-55.41L198.95-55.41Q198-54.56 196.70-54.56L196.70-54.56L196.70-54.56Q194.03-54.98 191.21-54.98L191.21-54.98L190.09-54.56L189.67-54.56L189.67-54.56Q188.93-54.56 188.40-54.98L188.40-54.98L187.56-54.70L186.71-55.13L186.01-54.70L185.87-54.84L185.87-59.41L186.29-59.48L186.29-59.48Q187.49-59.06 188.82-59.06L188.82-59.06L188.82-59.20L190.23-58.64L193.89-59.34L194.87-59.34L195.86-59.20L195.86-59.20Q195.86-59.41 196.42-59.63L196.42-59.63L196.56-59.48L196.70-59.48L197.54-59.63L197.54-59.63Q200.78-59.20 200.78-58.92L200.78-58.92L201.34-58.92L201.48-59.06L201.62-59.06L201.62-59.06Q201.76-58.64 202.46-58.64L202.46-58.64L203.03-58.64L203.03-58.64Q203.55-59.03 206.54-59.48L206.54-59.48L208.09-59.06L208.51-59.06L210.90-59.48L211.61-59.48L211.61-59.48Q212.13-58.92 213.71-58.92L213.71-58.92L213.71-58.92Q214.42-59.17 215.23-59.27L215.23-59.27L215.23-59.41L215.23-59.41Q215.51-59.38 215.82-59.31L215.82-59.31L215.82-59.31Q216.18-59.34 216.53-59.34L216.53-59.34L216.63-59.17L216.63-59.17Q217.34-58.99 218.07-58.75L218.07-58.75L218.78-58.75L218.78-58.75Q219.76-58.75 222.57-59.73L222.57-59.73L222.57-59.73Q222.82-59.63 223.10-59.55L223.10-59.55L223.10-55.30L222.86-55.23L221.17-55.51L221.17-55.51Q220.32-54.67 219.48-54.67L219.48-54.67L219.06-54.67L219.06-54.67Q218.60-54.67 218.07-55.09L218.07-55.09L217.93-55.09L217.93-55.09Q217.23-54.88 216.63-54.77ZM226.65-50.41L226.65-50.41L226.65-50.41Q234.04-49.57 234.04-49.15L234.04-49.15L234.98-49.46L234.98-49.46Q236.81-48.48 238.82-48.48L238.82-48.48L239.48-49.15L240.75-49.15L243.63-49.46L243.63-49.46Q245.88-49.01 245.88-46.23L245.88-46.23L245.57-45.28L244.27-45.28L244.27-45.28Q241.73-45.28 241.73-38.57L241.73-38.57L241.73-37.90L242.05-34.07L241.73-34.07L241.73-34.07Q242.68-32.77 243-28.93L243-28.93L243-28.93Q243-27.98 242.05-27.98L242.05-27.98L241.73-27.63L241.73-27.32L242.05-25.73L241.73-24.75L242.05-21.87L242.05-19.30L242.05-19.30Q242.12-17.72 242.68-17.72L242.68-17.72L240.75-10.02L241.73-8.09L241.38-8.09L242.68-2.64L241.73-2.64L241.73-2.64Q240.36-2.64 238.50-1.02L238.50-1.02L238.18-1.02L238.18-1.02Q236.36-1.02 234.67-2.32L234.67-2.32L233.05-2.32L230.48-1.69L225.04-2.32L223.10-2.00L222.47-2.95L222.47-3.59L222.47-3.59Q222.47-4.39 226.02-5.52L226.02-5.52L226.65-8.40L226.65-8.40Q226.65-10.76 225.67-12.59L225.67-12.59L225.67-12.59Q225.88-15.68 227.29-17.72L227.29-17.72L226.97-18.98L227.29-19.97L226.34-21.87L226.97-27.32L226.97-27.32Q226.97-31.46 226.02-34.70L226.02-34.70L226.97-36L226.97-36.32L226.02-37.27L226.34-37.58L226.34-39.83L226.02-41.77L226.34-42.08L226.34-42.40L226.34-42.40Q226.34-46.58 222.15-46.58L222.15-46.58L221.84-46.90L221.84-47.53L221.84-47.53Q224.40-50.41 226.65-50.41ZM256.15-17.72L256.15-17.72L256.15-17.72Q259.03-16.95 259.03-13.85L259.03-13.85L259.03-11.60L259.03-11.60Q257.41-11.60 257.41-9.70L257.41-9.70L259.03-3.27L259.03-2.95L259.03-2.95Q259.03-0.84 257.77-0.07L257.77-0.07L254.53-2.32L246.83-1.69L246.83-1.69Q244.93-1.69 244.93-3.59L244.93-3.59L244.93-4.25L244.93-4.25Q244.93-4.71 248.77-5.84L248.77-5.84L248.77-5.84Q248.77-7.14 250.38-8.40L250.38-8.40L252.63-10.65L252.95-11.92L252.63-12.27L252.63-12.59L254.21-14.84L254.21-14.84Q254.39-17.72 256.15-17.72ZM264.13-59.63L264.13-55.72L264.13-55.72Q263.29-55.23 261.70-55.23L261.70-55.23L260.44-55.51L260.44-55.51Q259.45-55.51 258.89-55.23L258.89-55.23L257.34-55.37L256.08-55.37L255.94-55.23L254.81-55.51L254.25-55.37L253.83-55.51L252.98-55.09L250.73-55.51L247.92-55.37L247.92-55.37Q246.09-55.37 244.97-55.79L244.97-55.79L244.97-55.79Q243.53-54.81 243-54.81L243-54.81L242.58-54.81L239.91-55.37L237.94-55.37L236.95-55.09L234.56-55.37L234.56-55.37Q233.89-55.37 232.45-54.67L232.45-54.67L232.45-54.67Q231.79-54.67 230.48-55.65L230.48-55.65L230.20-55.65L229.78-55.23L229.64-55.23L229.64-55.51L229.50-55.51L229.50-55.51Q228.97-54.95 228.52-54.95L228.52-54.95L227.39-55.09L227.25-54.95L227.25-54.95Q227.11-55.37 226.41-55.37L226.41-55.37L226.41-55.37Q224.30-55.34 224.30-55.09L224.30-55.09L222.75-55.51L221.91-55.37L221.77-55.37L221.77-55.37Q221.34-55.37 221.20-57.20L221.20-57.20L221.06-57.20L221.06-57.20Q221.20-59.59 222.61-59.59L222.61-59.59L223.88-59.87L223.88-59.87Q223.88-59.59 224.30-59.59L224.30-59.59L225.42-59.73L225.42-59.59L225.42-59.59Q226.72-59.77 227.25-60.15L227.25-60.15L227.25-60.15Q228.62-59.87 229.22-59.31L229.22-59.31L229.78-59.45L230.20-59.31L231.33-59.45L231.47-59.31L232.17-59.45L232.59-59.45L234.56-59.31L234.70-59.45L234.84-59.45L235.69-59.17L238.22-59.59L238.64-59.59L239.77-59.31L240.47-59.31L240.47-59.31Q241.49-59.31 243-59.73L243-59.73L243.42-59.59L245.39-59.73L245.95-59.73L248.20-59.17L248.20-59.17Q250.70-59.87 251.58-59.87L251.58-59.87L251.58-59.87Q251.58-59.45 252.14-59.45L252.14-59.45L252.98-59.59L254.11-59.45L254.25-59.59L254.39-59.45L254.53-59.45L254.53-59.45Q257.10-59.45 260.02-60.01L260.02-60.01L261.56-59.45L263.39-59.73L264.13-59.63ZM264.13 4.78L264.13 9.04L264.13 9.04Q263.64 8.89 262.83 8.82L262.83 8.82L260.44 9.39L259.31 9.39L258.05 9.25L257.91 9.25L257.77 9.39L256.22 9.25L255.52 9.25L255.09 8.96L254.67 8.96L253.83 9.25L253.41 8.96L253.41 8.96Q253.41 9.25 250.45 9.39L250.45 9.39L250.45 9.39Q250.17 9.11 248.77 8.96L248.77 8.96L248.77 8.96Q248.77 9.25 247.50 9.39L247.50 9.39L247.50 9.39Q247.50 9.04 245.95 8.82L245.95 8.82L244.41 8.82L243.42 9.25L240.47 8.68L239.48 8.96L239.34 8.96L239.20 8.82L238.22 9.11L235.83 8.68L234.70 9.11L234.56 9.11L234.42 8.96L232.31 9.25L230.34 8.68L227.53 9.25L224.86 9.11L223.73 9.25L223.73 9.25Q223.73 9 222.33 8.96L222.33 8.96L221.34 8.96L221.06 8.68L221.06 8.40L221.34 7.28L221.34 6.86L221.06 6.43L221.06 5.87L221.06 5.87Q221.06 4.89 222.19 4.75L222.19 4.75L222.19 4.75Q224.89 4.89 225.14 5.17L225.14 5.17L225.28 5.17L225.42 5.03L225.98 5.31L225.98 5.31Q225.98 4.78 230.20 4.61L230.20 4.61L232.59 5.17L233.16 5.17L233.30 5.03L233.44 5.17L233.72 5.17L234.42 5.03L235.27 5.17L235.83 5.17L237.66 4.89L239.20 5.17L240.61 5.17L241.88 5.59L243.84 5.17L243.98 5.17L245.25 5.31L247.22 4.75L248.91 5.17L250.31 5.17L250.45 5.03L250.59 5.17L251.16 5.17L252.42 5.31L256.64 4.89L257.06 5.03L257.48 4.89L258.05 5.03L258.19 5.03L258.33 4.89L259.31 5.03L261 4.75L263.25 5.03L264.13 4.78ZM271.65-50.10L271.65-50.41L271.65-50.41Q275.41-48.80 279.49-48.45L279.49-48.45L281.78-49.11L281.78-49.11Q282.41-49.11 284.06-46.51L284.06-46.51L284.06-43.56L282.76-41.63L282.76-39.97L283.08-36.07L282.41-31.50L284.70-26.26L284.70-26.26Q284.70-24.43 281.78-16.80L281.78-16.80L281.78-16.49L282.41-15.50L282.09-14.20L282.76-10.93L282.41-10.62L282.41-10.30L282.76-9.98L282.76-9L282.41-9L282.76-6.71L282.76-1.16L282.41-0.84L282.41-0.53L282.09-0.84L281.78-0.84L275.91 0.14L271.65-2.14L267.75-0.53L267.08-0.53L267.08-0.53Q265.29-0.53 263.85-2.78L263.85-2.78L263.85-2.78Q263.85-4.11 266.77-4.75L266.77-4.75L267.08-5.06L267.08-5.41L266.45-6.71L267.75-10.30L267.75-10.30Q267.75-13.18 266.77-14.52L266.77-14.52L267.43-17.16L267.43-20.39L267.08-21.73L267.43-23.03L266.77-27.60L267.75-31.18L266.77-36.39L267.75-41.63L267.75-41.63Q265.96-45.07 263.18-46.51L263.18-46.51L263.18-46.51Q263.18-50.10 271.65-50.10L271.65-50.10ZM288.63-50.41L288.63-50.41L289.93-49.75L290.25-50.10L290.57-50.10L294.15-49.43L297.74-49.75L300.38-49.11L300.38-47.50L300.69-37.05L300.69-37.05Q299.29-35.30 297.42-35.09L297.42-35.09L294.82-38.36L294.82-39.34L295.14-39.66L295.14-39.66Q293.06-43.56 290.92-43.56L290.92-43.56L290.57-44.86L287.65-44.54L287.65-44.54Q286.00-44.75 286.00-46.51L286.00-46.51L286.00-49.11L286.00-49.11Q286.00-49.75 288.63-50.41ZM291.23-36.07L292.54-36.07L292.54-34.10L292.54-34.10Q293.41-34.10 294.15-23.34L294.15-23.34L293.84-22.36L294.82-19.76L294.50-19.44L294.82-17.79L294.82-17.79Q294.40-15.19 292.85-15.19L292.85-15.19L292.85-15.19Q291.62-15.26 288.95-19.44L288.95-19.44L288.95-19.44Q288.28-19.44 288.28-21.38L288.28-21.38L286.00-23.66L286.00-23.66Q286.00-28.23 288.28-28.23L288.28-28.23L288.28-28.23Q288.28-28.90 289.27-28.90L289.27-28.90L290.92-35.75L291.23-36.07ZM298.72-15.86L299.39-15.86L299.39-15.86Q300.90-15.86 301.32-10.62L301.32-10.62L301.68-10.62L300.69-8.02L301.01-7.70L300.69-6.05L300.69-0.84L299.39-0.53L293.20-1.48L286.35-0.53L286.66-1.48L286.35-3.45L286.35-3.76L286.35-3.76Q286.35-4.43 289.27-4.43L289.27-4.43L289.27-4.43Q289.69-5.41 293.84-7.70L293.84-7.70L293.84-7.70Q296.33-13.85 298.72-15.86L298.72-15.86ZM306.35-59.48L306.35-55.13L305.37-55.44L305.37-55.44Q304.52-54.88 302.84-54.88L302.84-54.88L301.57-55.16L301.57-55.16Q300.59-55.16 300.02-54.88L300.02-54.88L298.48-55.02L297.21-55.02L297.07-54.88L295.95-55.16L295.38-55.02L294.96-55.16L294.12-54.74L291.87-55.16L289.05-55.02L289.05-55.02Q287.23-55.02 286.10-55.44L286.10-55.44L286.10-55.44Q284.66-54.46 284.13-54.46L284.13-54.46L283.71-54.46L281.04-55.02L279.07-55.02L278.09-54.74L275.70-55.02L275.70-55.02Q275.03-55.02 273.59-54.32L273.59-54.32L273.59-54.32Q272.92-54.32 271.62-55.30L271.62-55.30L271.34-55.30L270.91-54.88L270.77-54.88L270.77-55.16L270.63-55.16L270.63-55.16Q270.11-54.60 269.65-54.60L269.65-54.60L268.52-54.74L268.38-54.60L268.38-54.60Q268.24-55.02 267.54-55.02L267.54-55.02L267.54-55.02Q265.43-54.98 265.43-54.74L265.43-54.74L263.88-55.16L263.04-55.02L262.90-55.02L262.90-55.02Q262.48-55.02 262.34-56.85L262.34-56.85L262.20-56.85L262.20-56.85Q262.34-59.24 263.74-59.24L263.74-59.24L265.01-59.52L265.01-59.52Q265.01-59.24 265.43-59.24L265.43-59.24L266.55-59.38L266.55-59.24L266.55-59.24Q267.86-59.41 268.38-59.80L268.38-59.80L268.38-59.80Q269.75-59.52 270.35-58.96L270.35-58.96L270.91-59.10L271.34-58.96L272.46-59.10L272.60-58.96L273.30-59.10L273.73-59.10L275.70-58.96L275.84-59.10L275.98-59.10L276.82-58.82L279.35-59.24L279.77-59.24L280.90-58.96L281.60-58.96L281.60-58.96Q282.62-58.96 284.13-59.38L284.13-59.38L284.55-59.24L286.52-59.38L287.09-59.38L289.34-58.82L289.34-58.82Q291.83-59.52 292.71-59.52L292.71-59.52L292.71-59.52Q292.71-59.10 293.27-59.10L293.27-59.10L294.12-59.24L295.24-59.10L295.38-59.24L295.52-59.10L295.66-59.10L295.66-59.10Q298.23-59.10 301.15-59.66L301.15-59.66L302.70-59.10L304.52-59.38L305.65-59.24L306.35-59.48ZM306.25 5.03L306.25 9.42L305.26 9.70L304.84 9.56L303.86 9.84L302.59 9.42L300.34 9.42L299.50 9.28L297.53 9.56L295.14 9L292.89 9.28L291.90 9.14L291.34 9.28L290.64 9.14L289.93 9.56L289.23 9.14L289.23 9.14Q287.61 9.28 287.12 9.70L287.12 9.70L285.01 9.42L283.75 9.70L283.32 9.28L282.90 9.28L282.48 9.70L281.92 9.56L281.07 9.70L279.25 9.28L279.25 9.42L277.00 8.72L274.04 9.56L270.11 9.14L270.11 9.14Q269.96 9.56 269.26 9.56L269.26 9.56L268.70 9.56L268.70 9.56Q267.96 9.56 267.43 9.14L267.43 9.14L264.48 9.56L264.48 9.56Q262.51 9.56 262.51 8.58L262.51 8.58L262.65 8.02L262.65 8.02Q262.65 6.82 261.95 5.77L261.95 5.77L261.95 5.77Q262.37 4.64 263.92 4.64L263.92 4.64L266.03 5.20L266.59 5.20L269.12 5.48L270.67 5.20L271.51 5.34L275.73 4.64L276.43 4.64L276.43 4.64Q276.82 5.20 280.51 5.20L280.51 5.20L282.20 5.20L283.46 5.06L283.46 5.06Q285.43 5.27 285.43 5.48L285.43 5.48L288.25 5.20L289.23 5.48L289.23 5.48Q289.90 5.06 291.76 5.06L291.76 5.06L291.90 5.06L293.31 5.48L294.43 5.48L296.26 4.92L297.95 4.92L298.51 5.06L298.65 4.92L300.76 5.06L304.28 4.64L306.25 5.03ZM326.07-48.38L336.80-50.31L337.11-49.99L337.78-49.36L338.10-49.36L337.46-46.76L338.77-43.17L340.07-41.87L340.07-35.05L340.07-35.05Q341.02-34.17 342.63-27.25L342.63-27.25L343.93-25.95L343.62-25.63L343.62-24.33L343.93-23.03L343.62-21.73L345.59-15.89L345.23-15.89L346.22-14.27L345.23-12.62L345.23-12.62Q346.36-12.62 347.20-8.72L347.20-8.72L346.89-6.47L346.89-6.47Q346.89-5.48 349.80-4.50L349.80-4.50L350.75-1.90L349.45-0.95L349.14-0.95L348.19-1.58L347.52-1.58L343.30-0.28L342.98-0.28L341.68-0.60L340.38-0.28L339.71-0.28L338.10-1.27L331.28-0.28L331.28-0.28Q329.59-0.28 328.68-1.90L328.68-1.90L328.68-2.25L328.68-2.25Q330.64-3.45 330.64-6.47L330.64-6.47L329.98-8.72L330.29-9.07L329.66-11.99L329.98-12.30L329.98-13.61L327.06-13.61L324.46-12.97L324.46-12.97Q323.61-13.61 321.22-13.61L321.22-13.61L320.87-13.92L320.87-16.88L320.87-16.88Q320.87-17.51 322.84-17.82L322.84-17.82L324.14-16.52L326.39-16.52L328.04-16.88L327.06-22.39L327.38-24.33L327.38-24.33Q326.39-24.33 325.09-31.46L325.09-31.46L325.44-32.45L322.52-42.86L322.84-43.80L322.52-46.76L322.52-46.76Q322.77-48.69 324.46-48.69L324.46-48.69L326.07-48.38ZM321.22-39.27L321.22-39.27L321.54-39.27L321.86-38.29L321.54-37.34L321.86-34.07L321.86-34.07Q321.86-29.81 319.92-27.25L319.92-27.25L319.92-27.25Q319.92-23.17 317.32-18.14L317.32-18.14L317.64-17.19L317.32-14.91L317.64-12.62L316.65-12.30L316.97-10.37L316.02-7.77L316.02-7.45L316.02-7.45Q316.02-4.61 320.24-4.18L320.24-4.18L320.87-4.18L320.87-3.87L320.87-3.87Q320.87 0.04 318.62 0.04L318.62 0.04L314.72 0.04L314.72 0.04Q313.63 0.04 312.43-0.95L312.43-0.95L307.90 0.04L307.90 0.04Q306.63 0.04 305.61-3.55L305.61-3.55L305.61-4.18L305.61-4.18Q309.52-4.18 309.52-7.77L309.52-7.77L309.52-7.77Q312.50-10.76 315.04-18.14L315.04-18.14L314.72-19.13L318.27-31.15L318.94-31.82L318.62-32.77L318.62-32.77Q318.62-36.74 321.22-39.27ZM355.50-59.41L355.50-55.48L355.50-55.48Q354.69-55.72 354.69-55.90L354.69-55.90L353.57-55.62L353.43-55.76L353.29-55.76L352.44-55.48L350.89-55.62L346.68-54.77L343.16-55.20L341.05-55.05L340.91-55.20L340.35-55.05L338.66-55.05L336.83-55.62L335.71-55.62L334.30-55.20L334.16-55.20L334.16-55.20Q332.30-55.20 331.63-55.62L331.63-55.62L330.64-55.34L327.83-55.62L327.83-55.62Q327.83-55.41 325.86-55.20L325.86-55.20L324.60-55.34L322.91-55.34L322.91-55.34Q319.22-55.34 318.83-54.77L318.83-54.77L318.13-54.77L313.91-55.48L313.07-55.34L311.52-55.62L308.99-55.34L308.43-55.34L306.32-54.77L306.32-54.77Q304.77-54.77 304.35-55.90L304.35-55.90L304.35-55.90Q305.05-56.95 305.05-58.15L305.05-58.15L304.91-58.71L304.91-58.71Q304.91-59.70 306.88-59.70L306.88-59.70L309.83-59.27L309.83-59.27Q310.36-59.70 311.10-59.70L311.10-59.70L311.66-59.70L311.66-59.70Q312.36-59.70 312.50-59.27L312.50-59.27L316.44-59.70L319.39-58.85L321.64-59.55L321.64-59.41L323.47-59.84L324.32-59.70L324.88-59.84L325.30-59.41L325.72-59.41L326.14-59.84L327.41-59.55L329.52-59.84L329.52-59.84Q330.01-59.41 331.63-59.27L331.63-59.27L332.33-59.70L333.04-59.27L333.74-59.41L334.30-59.27L335.29-59.41L337.54-59.13L339.93-59.70L341.89-59.41L342.74-59.55L344.99-59.55L346.25-59.98L347.24-59.70L347.66-59.84L348.64-59.55L348.79-59.55L348.93-59.70L350.89-59.27L351.46-59.41L352.86-59.13L354.55-59.55L354.97-59.55L355.50-59.41ZM355.50 5.38L355.50 9.14L355.01 9L351.07 9.56L350.93 9.42L350.23 9.56L349.38 9.42L347.27 9.70L347.27 9.70Q346.18 9.70 344.74 9.28L344.74 9.28L344.60 9.28L344.60 9.28Q344.07 9.70 343.62 9.70L343.62 9.70L343.20 9.70L343.20 9.70Q342.35 9.70 341.51 8.86L341.51 8.86L339.82 9.14L339.26 9L338.70 9.14L337.57 9.14L337.57 9.14Q336.76 9.70 336.30 9.70L336.30 9.70L335.18 9.56L335.04 9.56L334.90 9.70L334.20 9.28L333.35 9.70L332.51 9.42L332.51 9.42Q331.98 9.84 331.24 9.84L331.24 9.84L330.82 9.84L329.70 9.42L329.70 9.42Q326.88 9.42 324.21 9.84L324.21 9.84L324.21 9.84Q322.91 9.84 321.96 9L321.96 9L321.96 9Q321.96 9.56 319.99 9.70L319.99 9.70L319.15 9.56L318.16 9.84L318.16 9.84Q316.30 9.56 315.91 9.28L315.91 9.28L315.77 9.28L315.63 9.42L312.54 9.14L312.54 9.14Q310.75 9.14 310.29 9.70L310.29 9.70L310.01 9.70L309.45 9.28L308.60 9.56L308.46 9.42L308.04 9.42L308.04 9.42Q307.16 9.70 304.66 9.84L304.66 9.84L303.68 9.28L303.68 9.14L303.82 9L303.82 9Q304.38 8.79 304.38 8.58L304.38 8.58L304.38 8.44L303.96 8.02L304.24 7.03L304.24 6.89L304.24 6.89Q304.24 6.61 303.82 6.61L303.82 6.61L303.82 6.05L304.38 5.06L304.38 5.06Q306 5.06 307.20 5.48L307.20 5.48L307.20 5.48Q308.81 5.48 309.30 4.92L309.30 4.92L310.01 4.92L312.40 5.34L312.82 5.34L314.37 4.92L314.37 4.92Q317.36 5.38 317.88 5.77L317.88 5.77L318.45 5.77L318.45 5.77Q319.15 5.77 319.29 5.34L319.29 5.34L319.43 5.34L319.57 5.48L320.13 5.48L320.13 5.48Q320.13 5.20 323.37 4.78L323.37 4.78L324.21 4.92L324.35 4.92L324.49 4.78L324.49 4.78Q325.05 4.99 325.05 5.20L325.05 5.20L326.04 5.06L327.02 5.06L330.68 5.77L332.09 5.20L332.09 5.34L332.09 5.34Q333.42 5.34 334.62 4.92L334.62 4.92L336.02 5.20L336.02 5.20Q338.70 5.20 340.10 4.64L340.10 4.64L340.10 4.64Q342.91 5.63 343.90 5.63L343.90 5.63L344.60 5.63L344.60 5.63Q346.29 5.06 347.84 4.92L347.84 4.92L348.26 5.34L348.68 5.34L348.68 5.06L349.10 5.06L349.10 5.06Q349.10 5.48 349.80 5.48L349.80 5.48L350.09 5.48L350.23 5.34L350.93 5.77L351.35 5.77L351.35 5.77Q351.63 5.48 352.48 5.48L352.48 5.48L353.18 4.78L355.50 5.38ZM371.67-50.41L371.67-50.41L372.62-49.43L374.55-49.43L374.55-47.85L374.55-47.85Q372.48-46.13 371.00-41.38L371.00-41.38L370.69-41.06L371.32-38.14L370.69-36.84L371.32-31.04L371.00-29.74L371.00-27.49L371.32-27.18L370.37-24.26L370.37-19.41L370.69-14.91L370.37-13.92L370.37-13.92Q372.30-11.53 372.30-7.14L372.30-7.14L371.99-5.84L371.99-5.84Q374.38-4.29 374.55-3.27L374.55-3.27L374.55-3.27Q374.55-0.67 371.32-0.67L371.32-0.67L363.59-3.27L363.59-3.27Q363.59-3.97 360.67-6.50L360.67-6.50L357.79-11.99L358.10-12.30L358.10-12.30Q357.68-13.68 354.87-16.49L354.87-16.49L354.87-16.84L354.87-16.84Q354.94-18.46 355.50-18.46L355.50-18.46L355.18-18.77L355.18-19.09L355.50-22.01L354.87-22.96L354.87-26.19L355.50-27.18L355.50-30.38L355.50-30.38Q357.79-38.67 358.73-40.39L358.73-40.39L358.73-40.39Q362.43-44.09 363.59-46.55L363.59-46.55L367.14-47.18L366.82-49.43L366.82-49.43Q367.49-49.99 371.67-50.41ZM390.38-50.10L392.34-50.41L392.34-50.41Q393.19-50.41 393.93-48.80L393.93-48.80L393.61-47.50L393.93-44.61L393.61-44.26L393.61-43.95L394.91-40.39L394.91-39.45L393.93-35.23L394.28-34.91L394.28-34.59L394.28-34.59Q393.50-32.34 392.98-32.34L392.98-32.34L390.06-32.66L390.06-32.66Q389.18-40.71 386.82-40.71L386.82-40.71L386.82-40.71Q382.61-46.23 380.39-46.23L380.39-46.23L380.39-46.23Q377.79-47.43 377.79-49.11L377.79-49.11L378.11-49.11L378.46-49.43L378.77-49.11L379.41-49.11L382.64-49.43L382.64-49.43Q384.68-49.22 386.51-47.85L386.51-47.85L388.44-47.85L390.38-50.10ZM391.36-27.18L391.36-27.18L391.36-27.18Q394.63-27.18 395.89-24.57L395.89-24.57L395.89-23.27L394.59-20.07L394.91-17.79L394.91-17.79Q393.93-16.21 393.93-13.61L393.93-13.61L394.28-11.00L393.93-10.69L393.93-10.37L394.28-9.39L394.28-9.39Q394.28-5.20 391.99-5.20L391.99-5.20L391.99-5.20Q388.51-4.29 386.82-2.29L386.82-2.29L378.77-0.04L378.77-0.04Q376.17-0.39 376.17-1.65L376.17-1.65L376.17-1.65Q376.17-3.66 380.39-5.20L380.39-5.20L380.71-7.45L380.71-8.44L380.71-8.44Q380.71-11.67 380.07-11.67L380.07-11.67L380.39-11.99L380.39-15.86L380.07-16.17L380.71-18.46L380.71-18.46Q380.71-21.80 376.17-23.27L376.17-23.27L376.17-23.94L377.79-25.56L379.72-25.56L384.89-26.19L388.13-25.56L389.11-25.56L389.11-25.56Q390.90-25.56 391.36-27.18ZM401.13-59.45L401.13-55.05L401.13-55.05Q400.89-55.02 400.61-54.98L400.61-54.98L399.76-55.13L398.92-54.84L398.50-54.98L397.65-54.70L397.65-54.70Q397.65-55.41 395.68-55.55L395.68-55.55L393.29-54.98L392.17-54.98L390.90-55.13L390.76-55.13L390.62-54.98L389.07-55.13L388.37-55.13L387.95-55.41L387.53-55.41L386.68-55.13L386.26-55.41L386.26-55.41Q386.26-55.13 383.31-54.98L383.31-54.98L383.31-54.98Q383.03-55.27 381.62-55.41L381.62-55.41L381.62-55.41Q381.62-55.13 380.36-54.98L380.36-54.98L380.36-54.98Q380.36-55.34 378.81-55.55L378.81-55.55L377.26-55.55L376.28-55.13L373.32-55.69L372.34-55.41L372.20-55.41L372.06-55.55L371.07-55.27L368.68-55.69L367.56-55.27L367.42-55.27L367.28-55.41L365.17-55.13L363.20-55.69L360.39-55.13L357.71-55.27L356.59-55.13L356.59-55.13Q356.59-55.37 355.18-55.41L355.18-55.41L354.20-55.41L353.92-55.69L353.92-55.97L354.20-57.09L354.20-57.52L353.92-57.94L353.92-58.50L353.92-58.50Q353.92-59.48 355.04-59.63L355.04-59.63L355.04-59.63Q357.75-59.48 358.00-59.20L358.00-59.20L358.14-59.20L358.28-59.34L358.84-59.06L358.84-59.06Q358.84-59.59 363.06-59.77L363.06-59.77L365.45-59.20L366.01-59.20L366.15-59.34L366.29-59.20L366.57-59.20L367.28-59.34L368.12-59.20L368.68-59.20L370.51-59.48L372.06-59.20L373.46-59.20L374.73-58.78L376.70-59.20L376.84-59.20L378.11-59.06L380.07-59.63L381.76-59.20L383.17-59.20L383.31-59.34L383.45-59.20L384.01-59.20L385.28-59.06L389.50-59.48L389.92-59.34L390.34-59.48L390.90-59.34L391.04-59.34L391.18-59.48L392.17-59.34L393.86-59.63L396.11-59.34L398.21-59.91L401.13-59.45ZM401.24 5.10L401.24 8.86L400.01 8.75L395.79 9.60L392.27 9.18L390.16 9.32L390.02 9.18L389.46 9.32L387.77 9.32L385.95 8.75L384.82 8.75L383.41 9.18L383.27 9.18L383.27 9.18Q381.41 9.18 380.74 8.75L380.74 8.75L379.76 9.04L376.95 8.75L376.95 8.75Q376.95 8.96 374.98 9.18L374.98 9.18L373.71 9.04L372.02 9.04L372.02 9.04Q368.33 9.04 367.95 9.60L367.95 9.60L367.24 9.60L363.02 8.89L362.18 9.04L360.63 8.75L358.10 9.04L357.54 9.04L355.43 9.60L355.43 9.60Q353.88 9.60 353.46 8.47L353.46 8.47L353.46 8.47Q354.16 7.42 354.16 6.22L354.16 6.22L354.02 5.66L354.02 5.66Q354.02 4.68 355.99 4.68L355.99 4.68L358.95 5.10L358.95 5.10Q359.47 4.68 360.21 4.68L360.21 4.68L360.77 4.68L360.77 4.68Q361.48 4.68 361.62 5.10L361.62 5.10L365.55 4.68L368.51 5.52L370.76 4.82L370.76 4.96L372.59 4.54L373.43 4.68L373.99 4.54L374.41 4.96L374.84 4.96L375.26 4.54L376.52 4.82L378.63 4.54L378.63 4.54Q379.13 4.96 380.74 5.10L380.74 5.10L381.45 4.68L382.15 5.10L382.85 4.96L383.41 5.10L384.40 4.96L386.65 5.24L389.04 4.68L391.01 4.96L391.85 4.82L394.10 4.82L395.37 4.39L396.35 4.68L396.77 4.54L397.76 4.82L397.90 4.82L398.04 4.68L400.01 5.10L400.57 4.96L401.24 5.10ZM413.44-49.15L420.12-50.41L420.12-50.41Q423.11-50.41 423.28-46.90L423.28-46.90L423.28-46.90Q419.80-44.93 419.80-40.22L419.80-40.22L418.85-36.70L419.80-33.22L419.48-28.13L420.12-27.14L419.17-24.29L419.17-22.04L419.80-13.46L419.80-11.53L419.80-11.53Q420.79-4.54 423.28-4.54L423.28-4.54L423.28-4.54Q424.27-4.54 424.27-3.90L424.27-3.90L424.27-1.65L424.27-1.65Q424.27-1.02 423.28-1.02L423.28-1.02L421.70-1.34L417.55-0.07L417.55-0.07Q412.80-3.76 408.66-4.22L408.66-4.22L405.77-7.07L404.82-12.83L405.14-13.15L405.14-13.46L404.82-14.41L405.46-21.09L405.46-21.09Q404.40-21.09 404.19-25.24L404.19-25.24L404.19-26.19L405.14-34.80L403.88-39.59L403.88-40.85L403.88-40.85Q403.88-42.50 404.82-43.73L404.82-43.73L404.82-45L404.82-45Q401.52-45.74 400.68-46.90L400.68-46.90L400.68-46.90Q400.68-48.20 402.26-48.20L402.26-48.20L402.57-49.78L404.82-49.78L408.34-50.10L408.34-50.10Q409.29-49.46 413.44-49.15L413.44-49.15ZM434.78-49.46L437.31-50.41L437.31-50.41Q440.61-50.41 442.09-48.52L442.09-48.52L442.09-48.52Q444.34-48.52 444.34-47.53L444.34-47.53L444.34-47.53Q439.24-41.34 439.24-38.32L439.24-38.32L439.56-38.00L439.56-37.65L438.26-34.80L439.56-30.02L438.26-22.68L438.26-22.68Q439.24-21.09 439.56-18.25L439.56-18.25L438.61-12.48L438.93-12.48L437.63-9.95L437.94-9.63L437.94-9.32L437.94-9.32Q435.09-1.34 432.21-1.34L432.21-1.34L427.43-1.65L427.43-4.85L427.43-4.85Q429.19-4.85 433.51-8.05L433.51-8.05L433.51-9.95L433.51-9.95Q436.36-12.09 436.36-15.05L436.36-15.05L435.09-21.09L435.09-21.09Q435.09-31.29 436.36-31.29L436.36-31.29L436.04-33.54L436.04-35.44L435.41-36.39L436.04-37.65L436.04-37.65Q435.52-38.32 435.09-43.10L435.09-43.10L435.09-43.10Q433.83-43.10 433.83-43.73L433.83-43.73L434.14-45L434.14-45Q430.31-46.13 430.31-46.58L430.31-46.58L430.00-47.53L430.00-47.53Q430.00-48.83 434.78-49.46L434.78-49.46ZM448.56 5.27L448.56 9.25L447.40 9.35L447.12 9.07L446.84 9.35L445.43 9.21L444.16 9.21L442.76 9.91L440.51 9.35L440.37 9.49L440.23 9.49L439.10 9.07L437.55 9.07L436.99 9.35L436.43 9.07L435.16 9.21L435.02 9.07L433.90 9.35L433.48 9.35L431.79 8.93L430.38 9.21L429.82 9.07L427.85 9.49L427.71 9.35L427.57 9.35L426.59 9.63L426.16 9.49L425.18 9.77L423.91 9.35L421.66 9.35L420.82 9.21L418.85 9.49L416.46 8.93L414.21 9.21L413.23 9.07L412.66 9.21L411.96 9.07L411.26 9.49L410.55 9.07L410.55 9.07Q408.94 9.21 408.45 9.63L408.45 9.63L406.34 9.35L405.07 9.63L404.65 9.21L404.23 9.21L403.80 9.63L403.24 9.49L402.40 9.63L400.57 9.21L400.57 9.35L400.01 9.18L400.01 5.10L400.01 5.10Q400.78 5.13 401.84 5.13L401.84 5.13L403.52 5.13L404.79 4.99L404.79 4.99Q406.76 5.20 406.76 5.41L406.76 5.41L409.57 5.13L410.55 5.41L410.55 5.41Q411.22 4.99 413.09 4.99L413.09 4.99L413.23 4.99L414.63 5.41L415.76 5.41L417.59 4.85L419.27 4.85L419.84 4.99L419.98 4.85L422.09 4.99L425.60 4.57L429.82 5.41L431.37 5.27L432.21 5.55L432.35 5.55L432.49 5.41L433.62 5.70L433.62 5.70Q433.62 5.38 436.01 4.85L436.01 4.85L436.01 4.85Q436.54 4.29 437.13 4.15L437.13 4.15L437.13 4.15Q438.15 5.13 439.24 5.13L439.24 5.13L439.95 4.71L439.95 4.71Q440.26 5.17 442.05 5.55L442.05 5.55L443.74 5.13L445.29 5.27L445.99 5.27L446.84 4.85L446.84 4.85Q447.50 5.27 448.10 5.27L448.10 5.27L448.56 5.27ZM448.70-59.31L448.70-55.37L448.52-55.37L447.12-55.23L446.84-55.51L446.55-55.23L444.87-55.37L443.46-55.37L442.76-55.51L442.34-55.09L441.07-55.51L440.51-55.37L440.37-55.37L440.23-55.51L439.38-55.09L437.84-55.37L436.85-55.23L434.88-55.79L430.95-55.23L430.80-55.37L430.10-55.23L429.26-55.37L427.15-55.09L427.15-55.09Q426.06-55.09 424.62-55.51L424.62-55.51L424.48-55.51L424.48-55.51Q423.95-55.09 423.49-55.09L423.49-55.09L423.07-55.09L423.07-55.09Q422.23-55.09 421.38-55.93L421.38-55.93L419.70-55.65L419.13-55.79L418.57-55.65L417.45-55.65L417.45-55.65Q416.64-55.09 416.18-55.09L416.18-55.09L415.05-55.23L414.91-55.23L414.77-55.09L414.07-55.51L413.23-55.09L412.38-55.37L412.38-55.37Q411.86-54.95 411.12-54.95L411.12-54.95L410.70-54.95L409.57-55.37L409.57-55.37Q406.76-55.37 404.09-54.95L404.09-54.95L404.09-54.95Q402.79-54.95 401.84-55.79L401.84-55.79L401.84-55.79Q401.84-55.27 400.01-55.09L400.01-55.09L400.01-59.31L400.01-59.31Q400.01-59.59 403.24-60.01L403.24-60.01L404.09-59.87L404.23-59.87L404.37-60.01L404.37-60.01Q404.93-59.80 404.93-59.59L404.93-59.59L405.91-59.73L406.90-59.73L410.55-59.03L411.96-59.59L411.96-59.45L411.96-59.45Q413.30-59.45 414.49-59.87L414.49-59.87L415.90-59.59L415.90-59.59Q418.57-59.59 419.98-60.15L419.98-60.15L419.98-60.15Q422.79-59.17 423.77-59.17L423.77-59.17L424.48-59.17L424.48-59.17Q426.16-59.73 427.71-59.87L427.71-59.87L428.13-59.45L428.55-59.45L428.55-59.73L428.98-59.73L428.98-59.73Q428.98-59.31 429.68-59.31L429.68-59.31L429.96-59.31L430.10-59.45L430.80-59.03L431.23-59.03L431.23-59.03Q431.51-59.31 432.35-59.31L432.35-59.31L433.05-60.01L436.99-59.03L437.13-59.03L438.96-59.87L439.10-59.73L440.37-59.73L440.37-59.73Q440.58-59.73 440.79-59.17L440.79-59.17L443.88-59.59L443.88-59.59Q444.66-59.31 445.85-59.31L445.85-59.31L445.85-59.31Q446.45-59.31 447.12-59.73L447.12-59.73L447.96-59.31L448.70-59.31ZM456.50-50.10L456.50-50.41L456.50-50.41Q460.27-48.80 464.34-48.45L464.34-48.45L466.63-49.11L466.63-49.11Q467.26-49.11 468.91-46.51L468.91-46.51L468.91-43.56L467.61-41.63L467.61-39.97L467.93-36.07L467.26-31.50L469.55-26.26L469.55-26.26Q469.55-24.43 466.63-16.80L466.63-16.80L466.63-16.49L467.26-15.50L466.95-14.20L467.61-10.93L467.26-10.62L467.26-10.30L467.61-9.98L467.61-9L467.26-9L467.61-6.71L467.61-1.16L467.26-0.84L467.26-0.53L466.95-0.84L466.63-0.84L460.76 0.14L456.50-2.14L452.60-0.53L451.93-0.53L451.93-0.53Q450.14-0.53 448.70-2.78L448.70-2.78L448.70-2.78Q448.70-4.11 451.62-4.75L451.62-4.75L451.93-5.06L451.93-5.41L451.30-6.71L452.60-10.30L452.60-10.30Q452.60-13.18 451.62-14.52L451.62-14.52L452.29-17.16L452.29-20.39L451.93-21.73L452.29-23.03L451.62-27.60L452.60-31.18L451.62-36.39L452.60-41.63L452.60-41.63Q450.81-45.07 448.03-46.51L448.03-46.51L448.03-46.51Q448.03-50.10 456.50-50.10L456.50-50.10ZM473.48-50.41L473.48-50.41L474.79-49.75L475.10-50.10L475.42-50.10L479.00-49.43L482.59-49.75L485.23-49.11L485.23-47.50L485.54-37.05L485.54-37.05Q484.14-35.30 482.27-35.09L482.27-35.09L479.67-38.36L479.67-39.34L479.99-39.66L479.99-39.66Q477.91-43.56 475.77-43.56L475.77-43.56L475.42-44.86L472.50-44.54L472.50-44.54Q470.85-44.75 470.85-46.51L470.85-46.51L470.85-49.11L470.85-49.11Q470.85-49.75 473.48-50.41ZM476.09-36.07L477.39-36.07L477.39-34.10L477.39-34.10Q478.27-34.10 479.00-23.34L479.00-23.34L478.69-22.36L479.67-19.76L479.36-19.44L479.67-17.79L479.67-17.79Q479.25-15.19 477.70-15.19L477.70-15.19L477.70-15.19Q476.47-15.26 473.80-19.44L473.80-19.44L473.80-19.44Q473.13-19.44 473.13-21.38L473.13-21.38L470.85-23.66L470.85-23.66Q470.85-28.23 473.13-28.23L473.13-28.23L473.13-28.23Q473.13-28.90 474.12-28.90L474.12-28.90L475.77-35.75L476.09-36.07ZM483.57-15.86L484.24-15.86L484.24-15.86Q485.75-15.86 486.18-10.62L486.18-10.62L486.53-10.62L485.54-8.02L485.86-7.70L485.54-6.05L485.54-0.84L484.24-0.53L478.05-1.48L471.20-0.53L471.52-1.48L471.20-3.45L471.20-3.76L471.20-3.76Q471.20-4.43 474.12-4.43L474.12-4.43L474.12-4.43Q474.54-5.41 478.69-7.70L478.69-7.70L478.69-7.70Q481.18-13.85 483.57-15.86L483.57-15.86ZM491.20-59.48L491.20-55.13L490.22-55.44L490.22-55.44Q489.38-54.88 487.69-54.88L487.69-54.88L486.42-55.16L486.42-55.16Q485.44-55.16 484.88-54.88L484.88-54.88L483.33-55.02L482.06-55.02L481.92-54.88L480.80-55.16L480.23-55.02L479.81-55.16L478.97-54.74L476.72-55.16L473.91-55.02L473.91-55.02Q472.08-55.02 470.95-55.44L470.95-55.44L470.95-55.44Q469.51-54.46 468.98-54.46L468.98-54.46L468.56-54.46L465.89-55.02L463.92-55.02L462.94-54.74L460.55-55.02L460.55-55.02Q459.88-55.02 458.44-54.32L458.44-54.32L458.44-54.32Q457.77-54.32 456.47-55.30L456.47-55.30L456.19-55.30L455.77-54.88L455.63-54.88L455.63-55.16L455.48-55.16L455.48-55.16Q454.96-54.60 454.50-54.60L454.50-54.60L453.38-54.74L453.23-54.60L453.23-54.60Q453.09-55.02 452.39-55.02L452.39-55.02L452.39-55.02Q450.28-54.98 450.28-54.74L450.28-54.74L448.73-55.16L447.89-55.02L447.75-55.02L447.75-55.02Q447.33-55.02 447.19-56.85L447.19-56.85L447.05-56.85L447.05-56.85Q447.19-59.24 448.59-59.24L448.59-59.24L449.86-59.52L449.86-59.52Q449.86-59.24 450.28-59.24L450.28-59.24L451.41-59.38L451.41-59.24L451.41-59.24Q452.71-59.41 453.23-59.80L453.23-59.80L453.23-59.80Q454.61-59.52 455.20-58.96L455.20-58.96L455.77-59.10L456.19-58.96L457.31-59.10L457.45-58.96L458.16-59.10L458.58-59.10L460.55-58.96L460.69-59.10L460.83-59.10L461.67-58.82L464.20-59.24L464.63-59.24L465.75-58.96L466.45-58.96L466.45-58.96Q467.47-58.96 468.98-59.38L468.98-59.38L469.41-59.24L471.38-59.38L471.94-59.38L474.19-58.82L474.19-58.82Q476.68-59.52 477.56-59.52L477.56-59.52L477.56-59.52Q477.56-59.10 478.13-59.10L478.13-59.10L478.97-59.24L480.09-59.10L480.23-59.24L480.38-59.10L480.52-59.10L480.52-59.10Q483.08-59.10 486-59.66L486-59.66L487.55-59.10L489.38-59.38L490.50-59.24L491.20-59.48ZM491.10 5.03L491.10 9.42L490.11 9.70L489.69 9.56L488.71 9.84L487.44 9.42L485.19 9.42L484.35 9.28L482.38 9.56L479.99 9L477.74 9.28L476.75 9.14L476.19 9.28L475.49 9.14L474.79 9.56L474.08 9.14L474.08 9.14Q472.46 9.28 471.97 9.70L471.97 9.70L469.86 9.42L468.60 9.70L468.18 9.28L467.75 9.28L467.33 9.70L466.77 9.56L465.93 9.70L464.10 9.28L464.10 9.42L461.85 8.72L458.89 9.56L454.96 9.14L454.96 9.14Q454.82 9.56 454.11 9.56L454.11 9.56L453.55 9.56L453.55 9.56Q452.81 9.56 452.29 9.14L452.29 9.14L449.33 9.56L449.33 9.56Q447.36 9.56 447.36 8.58L447.36 8.58L447.50 8.02L447.50 8.02Q447.50 6.82 446.80 5.77L446.80 5.77L446.80 5.77Q447.22 4.64 448.77 4.64L448.77 4.64L450.88 5.20L451.44 5.20L453.97 5.48L455.52 5.20L456.36 5.34L460.58 4.64L461.29 4.64L461.29 4.64Q461.67 5.20 465.36 5.20L465.36 5.20L467.05 5.20L468.32 5.06L468.32 5.06Q470.29 5.27 470.29 5.48L470.29 5.48L473.10 5.20L474.08 5.48L474.08 5.48Q474.75 5.06 476.61 5.06L476.61 5.06L476.75 5.06L478.16 5.48L479.29 5.48L481.11 4.92L482.80 4.92L483.36 5.06L483.50 4.92L485.61 5.06L489.13 4.64L491.10 5.03Z"/></svg>
